<svg id="Layer_1" data-name="Layer 1" xmlns="http://www.w3.org/2000/svg" viewBox="0 0 1920 1080"><defs><style>.cls-1{fill:#6c8387;}.cls-2{fill:#46646e;}.cls-3{fill:#38505e;}.cls-4{fill:#294b68;}.cls-5{fill:#131335;}.cls-5,.cls-6{stroke:#000;stroke-miterlimit:10;}.cls-6{fill:none;}</style></defs><title>mountains</title><path class="cls-1" d="M1516.15,661.85A895,895,0,0,1,1279.35,502c-35.38-33.26-68.41-69.69-109.16-96.09-16.38-10.62-34.24-17.56-51-26.73-3.53-1.92-19.24-3.7-26.14-13.18-1.19-1.64-14.12-19.65-16.14-19.87C1039,342,1057,344,1034,339c-.77-.17-12.39-13.5-13-14-30.49-25-19.84-15.89-46-57-1.51-2.37-17.87-16.85-19.27-14.41-17.1,29.85-47.43,50.16-72.31,74.37-31.55,30.71-55,68.62-78.6,105.78-14.61,23-31.32,47.36-57.12,56.08-6.51,2.2-13.43,3.31-19.62,6.3-15.45,7.43-24,25.18-39.51,32.44-7.16,3.34-15.22,4.16-22.65,6.83-9.89,3.57-18.29,10.28-26.33,17.05A696.16,696.16,0,0,0,564,626.64c-33.4,38.2-65.56,82.17-113.48,98.49a3.48,3.48,0,0,0-2,1.7c-15,29.84-26.33,64.92-28,98.21-.28,5.56-.29,11.46,2.56,16.24,3,5,8.56,7.87,13.87,10.35,173.78,81.37,374,73.11,565.87,74.42,83.49.57,167.58,3.22,249.89-10.77,105.66-18,204.61-62.68,302.21-107,11.46-5.2,23.48-10.86,30.61-21.22,8.77-12.76,8-30.21,2-44.47S1571,716.53,1560.66,705C1547,689.83,1534.69,670.42,1516.15,661.85Z"/><path class="cls-2" d="M1925.73,660.42c-15.69-19.79-57.38-13.47-85.49-6.94-11.58,2.68-21.47,10.21-32.8,13.83-17.87,5.71-37.22,1.18-55.43-3.36l-108.68-27.11c-12.76-3.19-25.82-6.4-38.91-5.18-28.14,2.6-51.15,24.91-79.07,29.26-45.19,7-84.23-33.88-129.64-39.32-54.65-6.54-101.29,38.86-131.47,84.88-9.3,14.19-18.68,29.5-33.8,37.21-26.46,13.49-57.63-1.44-86.83-7-63.63-12-133.16,22.13-192.25-4.38-15.86-7.12-29.92-18.33-46.62-23.19-62.43-18.17-113.18,56.55-177,68.88-21.69,4.19-54.81,4.71-72.35-8.29-18.85-14-38.13-20-61.86-19.2-24.26.79-48.16,6.94-72.43,7.05-8.72,0-17.57-.73-25.74-3.78-10-3.73-18.4-10.63-27.48-16.22A113.76,113.76,0,0,0,401,720.93c-25.12,1.72-48.88,12-73.77,15.82-19.57,3-42.61,1.44-58.82-11.16-9.61-7.47-10.41-12.17-23.17-14.34-13.63-2.32-27.34-4.22-41-6.32l-51.07-7.88c-13-2-26.3-4.11-38-10.25-20.78-10.94-27-17.86-38.46-23C62.37,657.28,38.09,656.37-5,684-2,824.3-.63,894.68,0,933c1.06,64.31,1.58,96.46,1,100-3.77,22.82-9.94,42,0,52,12.21,12.24,40.38,2.17,47,0,22-7.21,300.3-5.14,857-1,117.26.87,161.61,1.9,284,2,110.24.09,105.84-.71,278-1,206.2-.34,309.29-.52,312,0,54.51,10.4,117.93,28.78,140,0,10.17-13.26,5-28,0-63-11.36-79.08-7.82-162.19,1-218,5.12-32.4,5.41-65.39,9-98C1931.73,681.24,1933.32,670,1925.73,660.42Z"/><path class="cls-3" d="M1385.33,958.33l-21.94-44.58-9.68,37.12a244.54,244.54,0,0,1-18-85.85l-14,69.39a72.83,72.83,0,0,1-12.94-28.47c-.58,3.28-1.3,6.83-3.81,9s-7.36,1.83-8.27-1.38l-10.63,33.48q-11.17-28.62-19.48-58.23l-22.95,44.75c-3.92-6.66-14.48-8-19.94-2.53a77.36,77.36,0,0,1-10.5-21.19l-10.08,21.39-5.37-11.94-4.47,17.79a307.13,307.13,0,0,1-39.15-89.6L1137,948.43a24.17,24.17,0,0,1-13-16.86c-6.4,9.87-13.22,20.13-23.54,25.78s-25.22,4.81-31.74-5c-2.48,8.58-12,14.46-20.78,12.84s-15.58-10.51-14.84-19.41l-20.73,33.82a237.59,237.59,0,0,1-39.9-109.53q.57,56.52-3,113L964.27,974l-10.72,23.93a369.2,369.2,0,0,1-16.67-44.11c-1.54,8.55-3.41,17.73-9.79,23.62s-18.82,5.63-22-2.46c-1,6.57-10,7.54-16.55,6.79-8.32-1-17-2.06-23.79-7-7.46-5.51-11.09-14.76-13.44-23.73l-9.13,17.52q-18.3-25.29-34.11-52.26L797.25,934a31.61,31.61,0,0,1-8-11.07c-9.7,17.32-38,19.55-50.29,4l-13.61,17.89a60.58,60.58,0,0,1-9.48-31.85l-14.18,33.13a777.28,777.28,0,0,1-4.55-101.87l-27,88.45c-1.88,6.17-4.06,12.77-9.25,16.61s-14.28,2.82-16.18-3.35l-9.72,10.19-9.23-24.81a124.23,124.23,0,0,1-25.55,41.86c3.11,10.06,3.65,21.29,4.73,31.76l5.2,50.07c.35,3.37.7,6.81,0,10.12-1.76,7.84-9,13-15.74,17.41-1.41.92-3.85,1.51-4.29-.12a27.72,27.72,0,0,0,13,4.84c205.41,21.33,415-1.22,621.5-1.14,9.32,0,22.18-3.81,20.64-13,0,3.58-.09,7.17-.14,10.75a1625.1,1625.1,0,0,0,170.82,2.59c3.7-.14,7.6-.35,10.72-2.34,6.08-3.88,6.56-12.43,6.37-19.65-.52-20-1.09-40.36-7.08-59.47S1403.51,966.73,1385.33,958.33Z"/><path class="cls-4" d="M698.54,999.62c-57.44-25.4-98.76-77-151.64-111-25.88-16.59-54.54-28.93-78.72-47.92-17.4-13.68-32.4-30.74-51.92-41.16-25.42-13.57-55.42-14.36-84.17-16.14-33.62-2.08-67.67-6.08-98.77-19-27.47-11.42-52.48-29.73-81.73-35.12-15.15-2.79-30.71-1.94-46.09-2.88A199.68,199.68,0,0,1-5.06,684.27c3.59,39.07,1.26,79.18,1.62,118.42.86,92.51-7.26,184.83-15.38,277,155.26,63.43,327.59,72.35,495,62,36.3-2.25,73-5.47,107.3-17.64,21.06-7.47,41-18.28,62.89-23,35.39-7.62,72.69,1.36,108.22-5.6,3-.6,6.41-1.57,7.87-4.3,1.28-2.41.61-5.35-.15-8C752.46,1049.7,730.41,1013.72,698.54,999.62Z"/><path class="cls-4" d="M1226.8,999.62c57.44-25.4,98.76-77,151.64-111,25.88-16.59,54.54-28.93,78.72-47.92,17.4-13.68,32.4-30.74,51.92-41.16,25.42-13.57,55.42-14.36,84.17-16.14,33.63-2.08,67.67-6.08,98.77-19,27.47-11.42,52.48-29.73,81.73-35.12,15.15-2.79,30.71-1.94,46.09-2.88a199.68,199.68,0,0,0,110.56-42.16c-3.59,39.07-1.26,79.18-1.62,118.42-.86,92.51,7.26,184.83,15.38,277-155.26,63.43-327.59,72.35-495,62-36.3-2.25-73-5.47-107.3-17.64-21.06-7.47-41-18.28-62.89-23-35.39-7.62-72.69,1.36-108.22-5.6-3-.6-6.41-1.57-7.87-4.3-1.28-2.41-.61-5.35.15-8C1172.88,1049.7,1194.93,1013.72,1226.8,999.62Z"/><path class="cls-5" d="M945.59,1084.37l-82.7-21.67c-22.21-5.82-44.56-11.69-65.37-21.39-9-4.17-17.59-9-26.68-12.88s-18.73-6.7-28.28-9.51l-286.13-84.3-89.87-26.48c-24.69-7.27-49.47-14.57-74.91-18.51-13.58-2.1-27.5-3.29-40.25-8.43-6.46-2.61-12.5-6.2-19.05-8.59-8.19-3-16.94-4-25.61-5.05-23.1-2.72-46.69-5.42-69.48-.73-16.46,3.4-32.45,10.63-49.24,9.93-13.3-.56-26.42-6.11-39.56-4-16.61,2.68-31.9,17.32-48,12.32L.91,1085.5Z"/><path class="cls-5" d="M974.41,1084.37l82.7-21.67c22.21-5.82,44.56-11.69,65.37-21.39,9-4.17,17.59-9,26.68-12.88s18.73-6.7,28.28-9.51l286.13-84.3,89.87-26.48c24.69-7.27,49.47-14.57,74.91-18.51,13.58-2.1,27.5-3.29,40.25-8.43,6.46-2.61,12.5-6.2,19.05-8.59,8.19-3,16.94-4,25.61-5.05,23.1-2.72,46.69-5.42,69.48-.73,16.46,3.4,32.45,10.63,49.24,9.93,13.3-.56,26.42-6.11,39.56-4,16.61,2.68,31.9,17.32,48,12.32l-.41,200.41Z"/><path class="cls-6" d="M540,235h2"/></svg>